{"title":"Ghetto Stories 2010 DVDRip Xvid BigPerm LKRG ","uid":5960437,"size":1258985055,"categoryP":"video","categoryS":"movies","magnet":"?xt=urn:btih:3ae955001736b63df7ce997a4f8c21150abf1cd7&amp;dn=Ghetto+Stories+2010+DVDRip+Xvid+BigPerm+LKRG+&amp;tr=udp%3A%2F%2Ftracker.openbittorrent.com%3A80&amp;tr=udp%3A%2F%2Fopen.demonii.com%3A1337&amp;tr=udp%3A%2F%2Ftracker.coppersurfer.tk%3A6969&amp;tr=udp%3A%2F%2Fexodus.desync.com%3A6969","seeders":8,"leechers":0,"uploader":"HeroMaster","files":-1,"time":1289935124,"description":"Ghetto Stories 2010 DVDRip Xvid BigPerm LKRG \n\nGeneral\nComplete name : Ghetto Stories 2010 DVDRip Xvid BigPerm LKRG\\GS_LKRG.avi\nFormat : AVI\nFormat/Info : Audio Video Interleave\nFile size : 1.17 GiB\nDuration : 1h 49mn\nOverall bit rate : 1 532 Kbps\nWriting library : VirtualDub build 32817/release\n\nVideo\n\nID : 0\nFormat : MPEG-4 Visual\nFormat profile : Simple@L3\nFormat settings, BVOP : No\nFormat settings, QPel : No\nFormat settings, GMC : No warppoints\nFormat settings, Matrix : Default (H.263)\nCodec ID : XVID\nCodec ID/Hint : XviD\nDuration : 1h 49mn\nBit rate : 1 329 Kbps\nWidth : 700 pixels\nHeight : 394 pixels\nDisplay aspect ratio : 16:9\nFrame rate : 29.970 fps\nResolution : 8 bits\nColorimetry : 4:2:0\nScan type : Progressive\nBits/(Pixel*Frame) : 0.161\nStream size : 1.02 GiB (87%)\nWriting library : XviD 1.2.1 (UTC 2008-12-04)\n\nAudio\n\nID : 1\nFormat : AC-3\nFormat/Info : Audio Coding 3\nCodec ID : 2000\nDuration : 1h 49mn\nBit rate mode : Constant\nBit rate : 192 Kbps\nChannel(s) : 2 channels\nChannel positions : Front: L R\nSampling rate : 48.0 KHz\nStream size : 150 MiB (13%)\nAlignment : Aligned on interleaves\nInterleave, duration : 33 ms (1.00 video frame)\nInterleave, preload duration : 512 ms\nLanguage : English\n\n\nScreenshots:\n\n &lt;a href=&quot;\nhttp://www.postimg.com/image/25000/24310.jpg&quot; rel=&quot;nofollow&quot; target=&quot;_NEW&quot;&gt;\nhttp://www.postimg.com/image/25000/24310.jpg&lt;/a&gt; &lt;a href=&quot;\nhttp://www.postimg.com/image/25000/24311.jpg&quot; rel=&quot;nofollow&quot; target=&quot;_NEW&quot;&gt;\nhttp://www.postimg.com/image/25000/24311.jpg&lt;/a&gt; &lt;a href=&quot;\nhttp://www.postimg.com/image/25000/24312.jpg&quot; rel=&quot;nofollow&quot; target=&quot;_NEW&quot;&gt;\nhttp://www.postimg.com/image/25000/24312.jpg&lt;/a&gt;\n\n\nENJOY!","torrent":{"xt":"urn:btih:3ae955001736b63df7ce997a4f8c21150abf1cd7","amp;dn":"Ghetto+Stories+2010+DVDRip+Xvid+BigPerm+LKRG+","amp;tr":["udp%3A%2F%2Ftracker.openbittorrent.com%3A80","udp%3A%2F%2Fopen.demonii.com%3A1337","udp%3A%2F%2Ftracker.coppersurfer.tk%3A6969","udp%3A%2F%2Fexodus.desync.com%3A6969"],"infoHash":"3ae955001736b63df7ce997a4f8c21150abf1cd7","infoHashBuffer":{"type":"Buffer","data":[58,233,85,0,23,54,182,61,247,206,153,122,79,140,33,21,10,191,28,215]},"announce":[],"urlList":[]}}